<?xml version="1.0" encoding="UTF-8" standalone="no"?>
<!DOCTYPE svg PUBLIC "-//W3C//DTD SVG 1.1//EN" "http://www.w3.org/Graphics/SVG/1.1/DTD/svg11.dtd">
<svg width="100%" height="100%" viewBox="0 0 100 100" version="1.1" xmlns="http://www.w3.org/2000/svg" xmlns:xlink="http://www.w3.org/1999/xlink" xml:space="preserve" xmlns:serif="http://www.serif.com/" style="fill-rule:evenodd;clip-rule:evenodd;stroke-linejoin:round;stroke-miterlimit:2;">
    <g transform="matrix(0.15015,0,0,0.15015,-9.12913,-3.72372)">
        <circle cx="393.8" cy="357.8" r="333" style="fill:url(#_Linear1);"/>
    </g>
    <g transform="matrix(0.15015,0,0,0.15015,-9.12913,-3.72372)">
        <path d="M445.5,283.5C449.6,252 463.5,178.9 459,174.4C450,169.9 436.5,169.9 427.5,174.4C423,178.9 414,196.9 400.5,214.9C392.9,225.1 391.5,223.9 387,214.9C382.5,205.9 373.5,183.4 369,174.4C360,169.9 346.5,169.9 337.5,174.4C333,178.9 315.4,282.5 306,313.9C292.5,358.9 274.5,408.4 238.5,408.4C220.5,408.4 202.5,390.4 202.5,363.4C202.5,336.4 216.3,311.1 247.5,304.9C270,300.4 270,268.9 247.5,268.9C229.5,268.9 202.5,273.4 180,300.4C157.5,327.4 152.2,375.3 171,412.9C184.5,439.9 216,453.4 238.5,453.4C252,453.4 283.5,448.9 310.5,408.4C328.5,381.4 342.5,332 346.5,313.9C355.5,273.4 360,241.9 360,241.9C360,241.9 364.5,250.9 373.5,264.4C382.5,277.9 387,273.4 396,264.4C405,255.4 418.5,241.9 418.5,241.9C418.5,241.9 402,300.5 405,340.9C409.5,400.5 459,418.5 495,418.5C540,418.5 561.8,404.8 566.3,400.3C570.8,395.8 578.3,378.1 575.3,359.8C570.8,332.8 548.3,314.8 516.8,314.8C494.3,314.8 467.3,328.3 462.8,355.3C457.6,386.7 491.2,402.3 512.3,431.8C534.8,463.3 539.9,488.4 534.8,503.8C530.3,517.3 521.3,530.8 498.8,530.8C480.8,530.8 458.2,521.4 453.8,499.3C449.3,476.8 458.8,466.8 462.8,458.8C471.8,440.8 449.3,422.8 435.8,436.3C429.4,442.7 416.5,458.6 413.3,481.3C408.8,512.8 415.4,537 440.3,557.8C467.3,580.3 512.3,580.3 534.8,566.8C552.1,556.4 579.8,530.8 575.3,481.3C572.9,454.4 552.8,427.3 539.3,409.3C525.8,391.3 503.3,374.4 503.3,364.3C503.3,350.8 512.3,346.3 521.3,346.3C534.8,346.3 548.3,355.3 543.8,373.3C540,378 517.5,387 486,382.5C453.6,377.9 436.5,352.1 445.5,283.5Z" style="fill:white;fill-rule:nonzero;"/>
    </g>
    <defs>
        <linearGradient id="_Linear1" x1="0" y1="0" x2="1" y2="0" gradientUnits="userSpaceOnUse" gradientTransform="matrix(666,666,-666,666,60.8,24.8)"><stop offset="0" style="stop-color:rgb(244,93,32);stop-opacity:1"/><stop offset="0.5" style="stop-color:rgb(255,85,124);stop-opacity:1"/><stop offset="1" style="stop-color:rgb(188,52,196);stop-opacity:1"/></linearGradient>
    </defs>
</svg>
